<svg width="86" height="86" viewBox="0 0 86 86" fill="none" xmlns="http://www.w3.org/2000/svg">
<path d="M64.5 21.5H57.3334C57.3334 13.5808 50.9192 7.16667 43 7.16667C35.0809 7.16667 28.6667 13.5808 28.6667 21.5H21.5C17.5584 21.5 14.3334 24.725 14.3334 28.6667V71.6667C14.3334 75.6083 17.5584 78.8333 21.5 78.8333H64.5C68.4417 78.8333 71.6667 75.6083 71.6667 71.6667V28.6667C71.6667 24.725 68.4417 21.5 64.5 21.5ZM43 14.3333C46.9417 14.3333 50.1667 17.5583 50.1667 21.5H35.8334C35.8334 17.5583 39.0584 14.3333 43 14.3333ZM64.5 71.6667H21.5V28.6667H28.6667V35.8333C28.6667 37.8042 30.2792 39.4167 32.25 39.4167C34.2209 39.4167 35.8334 37.8042 35.8334 35.8333V28.6667H50.1667V35.8333C50.1667 37.8042 51.7792 39.4167 53.75 39.4167C55.7209 39.4167 57.3334 37.8042 57.3334 35.8333V28.6667H64.5V71.6667Z" fill="#F3C23C"/>
<path d="M49.1837 67.7143H50.9682C51.8712 67.7143 52.613 67.0263 52.7205 66.1448L54.4942 48.4288H49.1192V44.075H47.0015V48.4288H41.6587L41.9812 50.9443C43.8195 51.4495 45.5395 52.3632 46.5715 53.3737C48.1195 54.9002 49.1837 56.4805 49.1837 59.0605V67.7143ZM30.8442 66.6393V65.575H47.0015V66.6393C47.0015 67.2305 46.5177 67.7143 45.9157 67.7143H31.93C31.328 67.7143 30.8442 67.2305 30.8442 66.6393ZM47.0015 59.1143C47.0015 50.5142 30.8442 50.5142 30.8442 59.1143H47.0015ZM30.8657 61.275H46.9907V63.425H30.8657V61.275Z" fill="#F3C23C"/>
</svg>
