<svg width="47" height="47" viewBox="0 0 47 47" fill="none" xmlns="http://www.w3.org/2000/svg">
<path d="M36.4464 46.9787H39.9928C41.7873 46.9787 43.2614 45.6114 43.475 43.8596L47 8.65228H36.3182V0H32.1096V8.65228H21.4918L22.1327 13.6514C25.7859 14.6555 29.2041 16.4714 31.255 18.4796C34.3314 21.5132 36.4464 24.6537 36.4464 29.7809V46.9787ZM0 44.8423V42.7273H32.1096V44.8423C32.1096 46.0173 31.1482 46.9787 29.9518 46.9787H2.15773C0.961364 46.9787 0 46.0173 0 44.8423ZM32.1096 29.8877C32.1096 12.7968 0 12.7968 0 29.8877H32.1096ZM0.0427273 34.1818H32.0882V38.4546H0.0427273V34.1818Z" fill="#F3C23C"/>
</svg>
