<svg width="21" height="20" viewBox="0 0 21 20" fill="none" xmlns="http://www.w3.org/2000/svg">
<path d="M7.72211 16.2802L1.0257 16.2802" stroke="#F3C23C" stroke-width="2" stroke-linecap="round"/>
<path d="M19.7754 16.2802L7.72206 16.2802" stroke="#F3C23C" stroke-opacity="0.25" stroke-width="2" stroke-linecap="round"/>
<path d="M10.6122 16.1538C10.6122 14.4545 9.23464 13.0769 7.53531 13.0769C5.83597 13.0769 4.45838 14.4545 4.45838 16.1538C4.45838 17.8532 5.83597 19.2308 7.53531 19.2308C9.23464 19.2308 10.6122 17.8532 10.6122 16.1538Z" fill="#F3C23C" stroke="#F3C23C" stroke-width="1.5"/>
<path d="M13.0789 3.71981L19.7753 3.71981" stroke="#F3C23C" stroke-width="2" stroke-linecap="round"/>
<path d="M1.02564 3.71981L13.079 3.71981" stroke="#F3C23C" stroke-opacity="0.25" stroke-width="2" stroke-linecap="round"/>
<path d="M10.1888 3.84615C10.1888 5.54549 11.5664 6.92308 13.2657 6.92308C14.9651 6.92308 16.3426 5.54549 16.3426 3.84615C16.3426 2.14682 14.9651 0.769231 13.2657 0.769231C11.5664 0.769231 10.1888 2.14682 10.1888 3.84615Z" fill="#F3C23C" stroke="#F3C23C" stroke-width="1.5"/>
</svg>
