<svg width="16" height="16" viewBox="0 0 16 16" fill="none" xmlns="http://www.w3.org/2000/svg">
<path d="M8.00016 1.33334C5.42016 1.33334 3.3335 3.42 3.3335 6C3.3335 9.5 8.00016 14.6667 8.00016 14.6667C8.00016 14.6667 12.6668 9.5 12.6668 6C12.6668 3.42 10.5802 1.33334 8.00016 1.33334ZM8.00016 7.66667C7.55814 7.66667 7.13421 7.49107 6.82165 7.17851C6.50909 6.86595 6.3335 6.44203 6.3335 6C6.3335 5.55798 6.50909 5.13405 6.82165 4.82149C7.13421 4.50893 7.55814 4.33334 8.00016 4.33334C8.44219 4.33334 8.86611 4.50893 9.17867 4.82149C9.49123 5.13405 9.66683 5.55798 9.66683 6C9.66683 6.44203 9.49123 6.86595 9.17867 7.17851C8.86611 7.49107 8.44219 7.66667 8.00016 7.66667Z" fill="#F3C23C"/>
</svg>
