<svg width="59" height="59" viewBox="0 0 59 59" fill="none" xmlns="http://www.w3.org/2000/svg">
<path d="M42.8486 50.2236L50.3711 45.5036C50.8628 45.2086 51.1086 44.7907 51.1086 44.2499C51.1086 43.7091 50.8628 43.2911 50.3711 42.9961L42.8486 38.2762C42.357 37.9812 41.8535 37.9684 41.3382 38.2378C40.823 38.5072 40.5644 38.9379 40.5624 39.5299V48.9699C40.5624 49.5599 40.821 49.9906 41.3382 50.262C41.8555 50.5334 42.3589 50.5206 42.8486 50.2236ZM41.2999 17.7C42.1357 17.7 42.8368 17.4177 43.4032 16.8533C43.9696 16.2889 44.2518 15.5878 44.2499 14.75C44.2499 13.9141 43.9667 13.213 43.4003 12.6466C42.8339 12.0802 42.1337 11.798 41.2999 11.8H11.8C10.9641 11.8 10.263 12.0832 9.69662 12.6496C9.13022 13.216 8.84801 13.9161 8.84998 14.75C8.84998 15.5858 9.13317 16.2869 9.69957 16.8533C10.266 17.4197 10.9661 17.7019 11.8 17.7H41.2999ZM44.2499 58.9998C40.1691 58.9998 36.691 57.5612 33.8158 54.684C30.9405 51.8068 29.5019 48.3287 29.4999 44.2499C29.4999 40.1691 30.9385 36.69 33.8158 33.8128C36.693 30.9356 40.171 29.498 44.2499 29.4999C48.3307 29.4999 51.8097 30.9385 54.6869 33.8158C57.5642 36.693 59.0018 40.171 58.9998 44.2499C58.9998 48.3307 57.5612 51.8097 54.684 54.687C51.8068 57.5642 48.3287 59.0018 44.2499 58.9998ZM5.89998 5.00848e-06H47.1999C48.8224 5.00848e-06 50.2118 0.578204 51.3682 1.7346C52.5246 2.891 53.1018 4.27946 53.0998 5.89999V25.5912C51.7232 24.9029 50.2846 24.3984 48.784 24.0778C47.2835 23.7573 45.7721 23.598 44.2499 23.5999H11.8C10.9641 23.5999 10.263 23.8831 9.69662 24.4495C9.13022 25.0159 8.84801 25.7161 8.84998 26.5499C8.84998 27.3858 9.13317 28.0869 9.69957 28.6533C10.266 29.2197 10.9661 29.5019 11.8 29.4999H29.7949C28.9591 30.3358 28.1852 31.2453 27.4733 32.2287C26.7613 33.212 26.134 34.2691 25.5912 35.3999H11.8C10.9641 35.3999 10.263 35.6831 9.69662 36.2495C9.13022 36.8159 8.84801 37.516 8.84998 38.3499C8.84998 39.1857 9.13317 39.8868 9.69957 40.4532C10.266 41.0196 10.9661 41.3019 11.8 41.2999H23.8212C23.7228 41.7916 23.6609 42.2714 23.6353 42.7395C23.6098 43.2076 23.598 43.711 23.5999 44.2499C23.5999 46.3149 23.8831 48.2943 24.4495 50.1882C25.0159 52.0821 25.8636 53.8885 26.9924 55.6074C26.7466 55.6565 26.488 55.6192 26.2166 55.4953C25.9452 55.3714 25.7121 55.2121 25.5174 55.0174L23.1574 52.6574C22.8624 52.3624 22.5183 52.2149 22.1249 52.2149C21.7316 52.2149 21.3874 52.3624 21.0924 52.6574L18.7324 55.0174C18.4374 55.3124 18.0933 55.4599 17.7 55.4599C17.3066 55.4599 16.9625 55.3124 16.6675 55.0174L14.3075 52.6574C14.0125 52.3624 13.6683 52.2149 13.275 52.2149C12.8816 52.2149 12.5375 52.3624 12.2425 52.6574L9.88247 55.0174C9.58747 55.3124 9.24331 55.4599 8.84998 55.4599C8.45664 55.4599 8.11248 55.3124 7.81748 55.0174L5.45748 52.6574C5.16248 52.3624 4.81832 52.2149 4.42499 52.2149C4.03166 52.2149 3.68749 52.3624 3.39249 52.6574L1.0325 55.0174L0 55.6811V5.89999C0 4.27749 0.578199 2.88805 1.7346 1.73165C2.89099 0.575253 4.27945 -0.00196165 5.89998 5.00848e-06Z" fill="#F3C23C"/>
</svg>
