<svg width="40" height="34" viewBox="0 0 40 34" fill="none" xmlns="http://www.w3.org/2000/svg">
<path d="M19.5 3C15.9196 3 12.4857 4.42236 9.95397 6.9541C7.42223 9.48584 6 12.9196 6 16.5C6 20.0805 7.42223 23.5142 9.95397 26.046C12.4857 28.5777 15.9196 30 19.5 30C23.0804 30 26.5143 28.5777 29.046 26.046C31.5778 23.5142 33 20.0805 33 16.5C33 12.9196 31.5778 9.48584 29.046 6.9541C26.5143 4.42236 23.0804 3 19.5 3ZM24.5494 12.5064L22.6283 19.0463C22.5884 19.1828 22.5147 19.3072 22.4142 19.4079C22.3137 19.5086 22.1895 19.5824 22.053 19.6225L15.5074 21.5492C15.3598 21.5928 15.2035 21.5955 15.0545 21.557C14.9055 21.5186 14.7697 21.4405 14.6617 21.331C14.5536 21.2215 14.4771 21.0847 14.4406 20.9352C14.4041 20.7858 14.4088 20.6293 14.4543 20.4823L16.4538 14.0107C16.4945 13.8784 16.5669 13.7582 16.6648 13.6604C16.7626 13.5625 16.8831 13.4901 17.0154 13.4493L23.4823 11.4553C23.6291 11.4101 23.7852 11.4055 23.9344 11.4419C24.0836 11.4784 24.2201 11.5545 24.3295 11.6623C24.4389 11.77 24.5171 11.9054 24.5558 12.0541C24.5944 12.2027 24.5923 12.359 24.5494 12.5064Z" fill="#F3C23C"/>
</svg>
