<svg width="27" height="27" viewBox="0 0 27 27" fill="none" xmlns="http://www.w3.org/2000/svg">
<path fill-rule="evenodd" clip-rule="evenodd" d="M13.5 2.7C11.611 2.69965 9.755 3.19476 8.11717 4.13589C6.47934 5.07703 5.117 6.43129 4.16613 8.06348C3.21526 9.69568 2.70911 11.5487 2.69821 13.4377C2.68731 15.3266 3.17204 17.1854 4.10401 18.8284C4.73393 18.0098 5.54369 17.3469 6.47067 16.8912C7.39766 16.4354 8.41704 16.1989 9.45 16.2H17.55C18.583 16.1989 19.6023 16.4354 20.5293 16.8912C21.4563 17.3469 22.2661 18.0098 22.896 18.8284C23.828 17.1854 24.3127 15.3266 24.3018 13.4377C24.2909 11.5487 23.7847 9.69568 22.8339 8.06348C21.883 6.43129 20.5207 5.07703 18.8828 4.13589C17.245 3.19476 15.389 2.69965 13.5 2.7ZM24.223 21.7026C26.028 19.3495 27.0043 16.4656 27 13.5C27 6.04395 20.956 0 13.5 0C6.04396 0 1.51919e-05 6.04395 1.51919e-05 13.5C-0.00444174 16.4656 0.971887 19.3495 2.77696 21.7026L2.77021 21.7269L3.24946 22.2844C4.5156 23.7647 6.08768 24.9529 7.85732 25.7669C9.62696 26.581 11.5521 27.0017 13.5 27C16.2369 27.005 18.91 26.1737 21.1612 24.6172C22.121 23.9541 22.9913 23.1701 23.7505 22.2844L24.2298 21.7269L24.223 21.7026ZM13.5 5.4C12.4259 5.4 11.3957 5.82669 10.6362 6.58621C9.8767 7.34573 9.45 8.37587 9.45 9.44999C9.45 10.5241 9.8767 11.5543 10.6362 12.3138C11.3957 13.0733 12.4259 13.5 13.5 13.5C14.5741 13.5 15.6043 13.0733 16.3638 12.3138C17.1233 11.5543 17.55 10.5241 17.55 9.44999C17.55 8.37587 17.1233 7.34573 16.3638 6.58621C15.6043 5.82669 14.5741 5.4 13.5 5.4Z" fill="#F3C23C"/>
</svg>
