<svg width="34" height="34" viewBox="0 0 34 34" fill="none" xmlns="http://www.w3.org/2000/svg">
<path d="M8.4998 18.7C8.04894 18.7 7.61654 18.5209 7.29772 18.2021C6.97891 17.8833 6.7998 17.4509 6.7998 17C6.7998 16.5491 6.97891 16.1167 7.29772 15.7979C7.61654 15.4791 8.04894 15.3 8.4998 15.3H25.4998C25.9507 15.3 26.3831 15.4791 26.7019 15.7979C27.0207 16.1167 27.1998 16.5491 27.1998 17C27.1998 17.4509 27.0207 17.8833 26.7019 18.2021C26.3831 18.5209 25.9507 18.7 25.4998 18.7H8.4998Z" fill="#F3C23C"/>
<path d="M15.2998 8.49999C15.2998 8.04912 15.4789 7.61672 15.7977 7.29791C16.1165 6.97909 16.5489 6.79999 16.9998 6.79999C17.4507 6.79999 17.8831 6.97909 18.2019 7.29791C18.5207 7.61672 18.6998 8.04912 18.6998 8.49999V25.5C18.6998 25.9509 18.5207 26.3833 18.2019 26.7021C17.8831 27.0209 17.4507 27.2 16.9998 27.2C16.5489 27.2 16.1165 27.0209 15.7977 26.7021C15.4789 26.3833 15.2998 25.9509 15.2998 25.5V8.49999Z" fill="#F3C23C"/>
</svg>
