<svg width="21" height="21" viewBox="0 0 21 21" fill="none" xmlns="http://www.w3.org/2000/svg">
<path d="M12.6125 19.2531L5.24064 11.9031C5.15314 11.8156 5.09101 11.7208 5.05426 11.6188C5.01751 11.5167 4.99943 11.4073 5.00001 11.2906C5.00001 11.174 5.01839 11.0646 5.05514 10.9625C5.09189 10.8604 5.15372 10.7656 5.24064 10.6781L12.6125 3.30625C12.8167 3.10208 13.0719 3 13.3781 3C13.6844 3 13.9469 3.10938 14.1656 3.32812C14.3844 3.54688 14.4938 3.80208 14.4938 4.09375C14.4938 4.38542 14.3844 4.64062 14.1656 4.85938L7.73439 11.2906L14.1656 17.7219C14.3698 17.926 14.4719 18.1777 14.4719 18.477C14.4719 18.7762 14.3625 19.035 14.1438 19.2531C13.925 19.4719 13.6698 19.5813 13.3781 19.5813C13.0865 19.5813 12.8313 19.4719 12.6125 19.2531Z" fill="#F3C23C"/>
</svg>
