<svg width="116" height="104" viewBox="0 0 116 104" fill="none" xmlns="http://www.w3.org/2000/svg">
<path d="M98.5852 16.9146C90.5087 8.83815 80.2187 3.33799 69.0163 1.10968C57.8139 -1.11862 46.2023 0.0250168 35.6499 4.39598C25.0975 8.76694 16.0782 16.1689 9.73254 25.6658C3.38691 35.1628 -3.54566e-05 46.3282 2.78388e-10 57.75V78.925H34.6499V71.225H7.69998V57.75C7.69998 30.1526 30.1524 7.70018 57.7498 7.70018C85.3473 7.70018 107.8 30.1526 107.8 57.75V71.225H80.8498V78.925H115.5V57.75C115.52 50.1632 114.036 42.6475 111.133 35.6381C108.229 28.6287 103.965 22.2648 98.5852 16.9146Z" fill="#FFC529"/>
<path d="M23.7 51.7249H16V59.4249H23.7V51.7249Z" fill="#FFC529"/>
<path d="M62.1999 19H54.4999V26.7H62.1999V19Z" fill="#FFC529"/>
<path d="M37.1749 28.6249H29.4749V36.3249H37.1749V28.6249Z" fill="#FFC529"/>
<path d="M100.7 51.7249H92.9998V59.4249H100.7V51.7249Z" fill="#FFC529"/>
<path d="M64.5702 61.2989L89.6328 32.0991L83.7898 27.0838L58.7335 56.2758C55.3643 54.6129 51.5042 54.2361 47.877 55.2161C44.2498 56.1961 41.1047 58.4655 39.0314 61.5989C36.958 64.7323 36.0989 68.5144 36.615 72.236C37.1312 75.9576 38.9872 79.3631 41.835 81.814C44.6828 84.2648 48.3269 85.5927 52.0838 85.5486C55.8408 85.5044 59.4527 84.0913 62.2421 81.5743C65.0316 79.0572 66.8071 75.609 67.2357 71.8763C67.6643 68.1436 66.7166 64.3828 64.5702 61.2989ZM49.9509 77.5349C48.4798 77.1408 47.1587 76.3192 46.1546 75.1742C45.1505 74.0293 44.5084 72.6122 44.3097 71.1024C44.1109 69.5925 44.3643 68.0575 45.0379 66.6917C45.7114 65.3258 46.7749 64.1904 48.0938 63.4289C49.4127 62.6675 50.9277 62.3142 52.4474 62.4138C53.967 62.5134 55.423 63.0614 56.6312 63.9885C57.8394 64.9156 58.7456 66.1801 59.2351 67.6222C59.7246 69.0643 59.7755 70.6192 59.3814 72.0902C58.8508 74.0615 57.5599 75.7418 55.792 76.7626C54.024 77.7833 51.9234 78.0611 49.9509 77.5349Z" fill="#FFC529"/>
<rect x="38" y="55" width="39" height="36" fill="#F3FBE0"/>
<path d="M54.2 40.35L35.2 54.6C33.6167 55.8033 32.6667 57.6717 32.6667 59.6667V88.1667C32.6667 91.65 35.5167 94.5 39 94.5H77C80.4833 94.5 83.3333 91.65 83.3333 88.1667V59.6667C83.3333 57.6717 82.3833 55.8033 80.8 54.6L61.8 40.35C60.7017 39.5326 59.3691 39.0912 58 39.0912C56.6309 39.0912 55.2983 39.5326 54.2 40.35ZM59.5833 67.5833C59.5833 70.2117 57.4617 72.3333 54.8333 72.3333V83.4167C54.8333 84.3033 54.1367 85 53.25 85C52.3633 85 51.6667 84.3033 51.6667 83.4167V72.3333C49.0383 72.3333 46.9167 70.2117 46.9167 67.5833V59.6667C46.9167 58.78 47.6133 58.0833 48.5 58.0833C49.3867 58.0833 50.0833 58.78 50.0833 59.6667V67.5833H51.6667V59.6667C51.6667 58.78 52.3633 58.0833 53.25 58.0833C54.1367 58.0833 54.8333 58.78 54.8333 59.6667V67.5833H56.4167V59.6667C56.4167 58.78 57.1133 58.0833 58 58.0833C58.8867 58.0833 59.5833 58.78 59.5833 59.6667V67.5833ZM65.9167 85C65.03 85 64.3333 84.3033 64.3333 83.4167V73.9167H62.75C61.8633 73.9167 61.1667 73.22 61.1667 72.3333V64.4167C61.1667 61.63 62.9717 59.255 65.4733 58.4317C66.455 58.0833 67.5 58.875 67.5 59.9517V83.4167C67.5 84.3033 66.8033 85 65.9167 85Z" fill="#FFC529"/>
</svg>
