<svg width="37" height="37" viewBox="0 0 37 37" fill="none" xmlns="http://www.w3.org/2000/svg">
<path d="M4.625 15.0312V13.2969C4.62494 12.5382 4.79079 11.7887 5.11094 11.1008C5.43109 10.413 5.89779 9.80352 6.47833 9.31507C7.05887 8.82663 7.7392 8.47105 8.47165 8.27326C9.2041 8.07546 9.97094 8.04024 10.7184 8.17006C11.205 6.48216 12.2271 4.99821 13.6308 3.94202C15.0344 2.88583 16.7434 2.31467 18.5 2.31467C20.2566 2.31467 21.9656 2.88583 23.3692 3.94202C24.7729 4.99821 25.795 6.48216 26.2816 8.17006C27.0291 8.04024 27.7959 8.07546 28.5284 8.27326C29.2608 8.47105 29.9411 8.82663 30.5217 9.31507C31.1022 9.80352 31.5689 10.413 31.8891 11.1008C32.2092 11.7887 32.3751 12.5382 32.375 13.2969V15.0312C32.3755 18.5113 31.0682 21.8645 28.7124 24.4259C26.3566 26.9874 23.1242 28.57 19.6562 28.86V32.375H17.3438V28.86C13.8758 28.57 10.6434 26.9874 8.2876 24.4259C5.93176 21.8645 4.6245 18.5113 4.625 15.0312ZM14.9989 13.8727H22.0011C21.8983 12.9564 22.0412 12.0292 22.4151 11.1864C22.7889 10.3435 23.3804 9.61534 24.1286 9.07656C23.8291 7.80876 23.1104 6.67921 22.0888 5.87086C21.0672 5.06252 19.8027 4.62273 18.5 4.62273C17.1973 4.62273 15.9328 5.06252 14.9112 5.87086C13.8896 6.67921 13.1709 7.80876 12.8714 9.07656C13.62 9.61554 14.2117 10.3441 14.5855 11.1874C14.9594 12.0307 15.1021 12.9583 14.9989 13.875V13.8727ZM12.3649 13.8727C12.4507 13.492 12.4497 13.0969 12.3621 12.7167C12.2744 12.3364 12.1024 11.9808 11.8586 11.6761C11.6149 11.3713 11.3058 11.1253 10.9541 10.9563C10.6024 10.7872 10.2172 10.6994 9.82697 10.6994C9.43676 10.6994 9.05155 10.7872 8.69986 10.9563C8.34817 11.1253 8.03902 11.3713 7.79529 11.6761C7.55156 11.9808 7.37951 12.3364 7.29187 12.7167C7.20423 13.0969 7.20325 13.492 7.289 13.8727H12.3649ZM24.6351 13.8727H29.7087C29.7944 13.492 29.7935 13.0969 29.7058 12.7167C29.6182 12.3364 29.4461 11.9808 29.2024 11.6761C28.9587 11.3713 28.6495 11.1253 28.2978 10.9563C27.9461 10.7872 27.5609 10.6994 27.1707 10.6994C26.7805 10.6994 26.3953 10.7872 26.0436 10.9563C25.6919 11.1253 25.3828 11.3713 25.139 11.6761C24.8953 11.9808 24.7233 12.3364 24.6356 12.7167C24.548 13.0969 24.547 13.492 24.6328 13.8727H24.6351ZM18.5 26.5937C21.3668 26.5937 24.1313 25.5287 26.2572 23.6054C28.383 21.6821 29.7186 19.0376 30.0047 16.1852H6.99531C7.28142 19.0376 8.61698 21.6821 10.7428 23.6054C12.8687 25.5287 15.6332 26.5937 18.5 26.5937ZM13.875 32.3773H23.125C23.4317 32.3773 23.7258 32.4991 23.9426 32.716C24.1594 32.9328 24.2812 33.2269 24.2812 33.5336C24.2812 33.8402 24.1594 34.1343 23.9426 34.3512C23.7258 34.568 23.4317 34.6898 23.125 34.6898H13.875C13.5683 34.6898 13.2742 34.568 13.0574 34.3512C12.8406 34.1343 12.7188 33.8402 12.7188 33.5336C12.7188 33.2269 12.8406 32.9328 13.0574 32.716C13.2742 32.4991 13.5683 32.3773 13.875 32.3773Z" fill="#FFCA3D" fill-opacity="0.94"/>
</svg>
