<svg width="47" height="44" viewBox="0 0 47 44" fill="none" xmlns="http://www.w3.org/2000/svg">
<path d="M13.1 35L11 32.9L26.375 17.525C25.925 16.475 25.8625 15.2875 26.1875 13.9625C26.5125 12.6375 27.225 11.45 28.325 10.4C29.65 9.075 31.125 8.3 32.75 8.075C34.375 7.85 35.7 8.25 36.725 9.275C37.75 10.3 38.15 11.625 37.925 13.25C37.7 14.875 36.925 16.35 35.6 17.675C34.55 18.775 33.3625 19.4875 32.0375 19.8125C30.7125 20.1375 29.525 20.075 28.475 19.625L26.6 21.5L38 32.9L35.9 35L24.5 23.675L13.1 35ZM17.525 22.175L13.025 17.675C11.675 16.325 11 14.7125 11 12.8375C11 10.9625 11.675 9.35 13.025 8L22.325 17.375L17.525 22.175Z" fill="#D3D1D8"/>
</svg>
