<svg width="27" height="27" viewBox="0 0 27 27" fill="none" xmlns="http://www.w3.org/2000/svg">
<path d="M13.5 0C9.91957 0 6.48572 1.42236 3.95397 3.9541C1.42223 6.48584 0 9.91962 0 13.5C0 17.0805 1.42223 20.5142 3.95397 23.046C6.48572 25.5777 9.91957 27 13.5 27C17.0804 27 20.5143 25.5777 23.046 23.046C25.5778 20.5142 27 17.0805 27 13.5C27 9.91962 25.5778 6.48584 23.046 3.9541C20.5143 1.42236 17.0804 0 13.5 0ZM18.5494 9.50638L16.6283 16.0463C16.5884 16.1828 16.5147 16.3072 16.4142 16.4079C16.3137 16.5086 16.1895 16.5824 16.053 16.6225L9.50738 18.5492C9.35981 18.5928 9.20346 18.5955 9.05449 18.557C8.90552 18.5186 8.76974 18.4405 8.66165 18.331C8.55357 18.2215 8.47715 18.0847 8.44063 17.9352C8.40411 17.7858 8.40884 17.6293 8.45425 17.4823L10.4538 11.0107C10.4945 10.8784 10.5669 10.7582 10.6648 10.6604C10.7626 10.5625 10.8831 10.4901 11.0154 10.4493L17.4823 8.45534C17.6291 8.41014 17.7852 8.40549 17.9344 8.44193C18.0836 8.47836 18.2201 8.55449 18.3295 8.66225C18.4389 8.77002 18.5171 8.90544 18.5558 9.05405C18.5944 9.20267 18.5923 9.35896 18.5494 9.50638Z" fill="#F3C23C"/>
</svg>
