<svg width="70" height="63" viewBox="0 0 70 63" fill="none" xmlns="http://www.w3.org/2000/svg">
<path d="M69.6536 20.536L65.9775 5.29962C65.2072 2.16169 62.4763 0 59.2903 0H10.6597C7.50864 0 4.74275 2.19655 4.00751 5.29962L0.331331 20.536C-0.50894 24.0923 0.261309 27.7184 2.50203 30.5774C2.78212 30.9609 3.16724 31.2398 3.48235 31.5885V55.7854C3.48235 59.6207 6.63336 62.7586 10.4846 62.7586H59.5004C63.3516 62.7586 66.5026 59.6207 66.5026 55.7854V31.5885C66.8177 31.2747 67.2029 30.9609 67.4829 30.6123C69.7237 27.7533 70.5289 24.0923 69.6536 20.536ZM59.1853 6.93831L62.8615 22.1747C63.2116 23.6391 62.8965 25.1034 61.9862 26.254C61.496 26.8816 60.4457 27.8927 58.6951 27.8927C56.5594 27.8927 54.7038 26.1843 54.4587 23.918L52.4281 6.97318L59.1853 6.93831ZM38.4936 6.97318H45.3558L47.2464 22.7326C47.4215 24.0923 47.0013 25.4521 46.0911 26.4632C45.3208 27.3697 44.2004 27.8927 42.765 27.8927C40.4192 27.8927 38.4936 25.8356 38.4936 23.3253V6.97318ZM22.7035 22.7326L24.6291 6.97318H31.4914V23.3253C31.4914 25.8356 29.5657 27.8927 26.9749 27.8927C25.7845 27.8927 24.6992 27.3697 23.8589 26.4632C22.9836 25.4521 22.5635 24.0923 22.7035 22.7326ZM7.12352 22.1747L10.6597 6.97318H17.5569L15.5262 23.918C15.2461 26.1843 13.4255 27.8927 11.2899 27.8927C9.57431 27.8927 8.48896 26.8816 8.03381 26.254C7.08851 25.1383 6.7734 23.6391 7.12352 22.1747ZM10.4846 55.7854V34.7613C10.7647 34.7962 11.0098 34.8659 11.2899 34.8659C14.3358 34.8659 17.1017 33.6107 19.1324 31.5536C21.2331 33.6456 24.034 34.8659 27.22 34.8659C30.266 34.8659 32.9968 33.6107 35.0275 31.6234C37.0932 33.6107 39.8941 34.8659 43.0451 34.8659C45.986 34.8659 48.7869 33.6456 50.8876 31.5536C52.9183 33.6107 55.6841 34.8659 58.7301 34.8659C59.0102 34.8659 59.2553 34.7962 59.5354 34.7613V55.7854H10.4846Z" fill="#F3C23C"/>
</svg>
