<svg width="40" height="40" viewBox="0 0 40 40" fill="none" xmlns="http://www.w3.org/2000/svg">
<path d="M9.29028 24.8004V29.5929C10.7543 31.3881 12.5998 32.8347 14.6929 33.8273C16.7859 34.82 19.0738 35.3339 21.3903 35.3316C26.7953 35.3316 31.5603 32.5866 34.3653 28.4154V21.6979C33.4053 28.0016 27.9615 32.8316 21.3903 32.8316C15.9478 32.8316 11.279 29.5191 9.29028 24.8004ZM32.0528 12.0517V9.89915C32.0491 9.42442 32.1269 8.95257 32.2828 8.50415C29.3691 5.66358 25.4595 4.07619 21.3903 4.08165C17.7489 4.07625 14.2208 5.34795 11.4203 7.6754L11.4265 7.75165L11.4278 7.7854V11.1604C12.6588 9.72252 14.1869 8.56861 15.9067 7.77815C17.6266 6.98769 19.4974 6.57948 21.3903 6.58165C25.7828 6.58165 29.6703 8.73915 32.0528 12.0517Z" fill="#FFCA3D" fill-opacity="0.94"/>
<path d="M31.3903 19.7067C31.3903 22.3588 30.3367 24.9024 28.4613 26.7777C26.586 28.6531 24.0424 29.7066 21.3903 29.7066C18.7381 29.7066 16.1946 28.6531 14.3192 26.7777C12.4438 24.9024 11.3903 22.3588 11.3903 19.7067C11.3903 17.0545 12.4438 14.5109 14.3192 12.6356C16.1946 10.7602 18.7381 9.70665 21.3903 9.70665C24.0424 9.70665 26.586 10.7602 28.4613 12.6356C30.3367 14.5109 31.3903 17.0545 31.3903 19.7067ZM21.3903 28.4566C22.5393 28.4567 23.6771 28.2303 24.7387 27.7906C25.8003 27.3509 26.7649 26.7063 27.5774 25.8938C28.39 25.0813 29.0345 24.1167 29.4742 23.0551C29.9139 21.9935 30.1403 20.8557 30.1403 19.7067C30.1403 18.5576 29.9139 17.4198 29.4742 16.3582C29.0345 15.2966 28.39 14.332 27.5774 13.5195C26.7649 12.707 25.8003 12.0624 24.7387 11.6227C23.6771 11.183 22.5393 10.9567 21.3903 10.9567C19.0696 10.9567 16.844 11.8785 15.2031 13.5195C13.5621 15.1604 12.6403 17.386 12.6403 19.7067C12.6403 22.0273 13.5621 24.2529 15.2031 25.8938C16.844 27.5348 19.0696 28.4566 21.3903 28.4566ZM38.2528 9.00665C38.2528 7.88165 37.3403 6.96915 36.2153 6.96915C34.5903 6.96915 33.2903 8.28165 33.3028 9.89415V16.8317C33.3028 18.3979 34.2103 19.8004 35.6153 20.4354V31.2067C35.6153 31.8567 36.1403 32.3816 36.7903 32.3816H37.0778C37.7278 32.3816 38.2528 31.8567 38.2528 31.2067V9.00665ZM9.29026 6.96915C9.06483 6.96915 8.84862 7.0587 8.68922 7.21811C8.52981 7.37752 8.44026 7.59372 8.44026 7.81915V11.1817C8.44026 11.4317 8.24026 11.6192 8.00276 11.6192C7.75276 11.6192 7.56526 11.4192 7.56526 11.1817V7.85665C7.56526 7.39415 7.20276 6.98165 6.74026 6.96915C6.25276 6.95665 5.85276 7.34415 5.85276 7.81915V11.1817C5.85276 11.4317 5.65276 11.6192 5.41526 11.6192C5.16526 11.6192 4.97776 11.4192 4.97776 11.1817V7.85665C4.97776 7.39415 4.61526 6.98165 4.15276 6.96915C3.66526 6.95665 3.26526 7.34415 3.26526 7.81915V13.5442C3.26526 14.6717 3.81151 15.6779 4.65151 16.3054C5.40276 16.7292 5.40276 18.6692 5.40276 18.6692V31.1942C5.40276 31.8442 5.92776 32.3692 6.57776 32.3692H6.86526C7.51526 32.3692 8.04026 31.8442 8.04026 31.1942V18.6692C8.04026 18.6692 8.04026 16.8054 8.79151 16.3054C9.22152 15.9848 9.57075 15.5682 9.81142 15.0888C10.0521 14.6095 10.1775 14.0805 10.1778 13.5442V7.81915C10.1651 7.59137 10.0664 7.3769 9.90166 7.2191C9.7369 7.06131 9.51837 6.97197 9.29026 6.96915Z" fill="#FFCA3D" fill-opacity="0.94"/>
</svg>
