<svg width="21" height="21" viewBox="0 0 21 21" fill="none" xmlns="http://www.w3.org/2000/svg">
<path d="M17.4125 11.0775C17.2723 10.9178 17.1949 10.7125 17.1949 10.5C17.1949 10.2875 17.2723 10.0822 17.4125 9.9225L18.5325 8.6625C18.6559 8.52483 18.7326 8.35162 18.7514 8.16769C18.7703 7.98377 18.7304 7.7986 18.6375 7.63875L16.8875 4.61125C16.7956 4.45158 16.6556 4.32502 16.4874 4.2496C16.3193 4.17418 16.1317 4.15376 15.9513 4.19125L14.3063 4.52375C14.097 4.567 13.8791 4.53214 13.6937 4.42575C13.5083 4.31936 13.3683 4.1488 13.3 3.94625L12.7663 2.345C12.7076 2.17121 12.5957 2.02026 12.4466 1.91349C12.2974 1.80672 12.1185 1.74953 11.935 1.75H8.43503C8.24422 1.74004 8.0554 1.79281 7.8974 1.90025C7.7394 2.00769 7.62091 2.16389 7.56003 2.345L7.07003 3.94625C7.00178 4.1488 6.86176 4.31936 6.67638 4.42575C6.491 4.53214 6.2731 4.567 6.06378 4.52375L4.37503 4.19125C4.20401 4.16708 4.02967 4.19407 3.87396 4.26881C3.71825 4.34355 3.58815 4.4627 3.50003 4.61125L1.75003 7.63875C1.6548 7.79682 1.61198 7.98095 1.62769 8.16482C1.64341 8.34869 1.71685 8.52288 1.83753 8.6625L2.94878 9.9225C3.08906 10.0822 3.16642 10.2875 3.16642 10.5C3.16642 10.7125 3.08906 10.9178 2.94878 11.0775L1.83753 12.3375C1.71685 12.4771 1.64341 12.6513 1.62769 12.8352C1.61198 13.019 1.6548 13.2032 1.75003 13.3612L3.50003 16.3887C3.59199 16.5484 3.73201 16.675 3.90013 16.7504C4.06824 16.8258 4.25588 16.8462 4.43628 16.8087L6.08128 16.4762C6.2906 16.433 6.5085 16.4679 6.69388 16.5742C6.87926 16.6806 7.01928 16.8512 7.08753 17.0537L7.62128 18.655C7.68216 18.8361 7.80065 18.9923 7.95865 19.0997C8.11665 19.2072 8.30547 19.26 8.49628 19.25H11.9963C12.1797 19.2505 12.3587 19.1933 12.5078 19.0865C12.657 18.9797 12.7688 18.8288 12.8275 18.655L13.3613 17.0537C13.4295 16.8512 13.5696 16.6806 13.7549 16.5742C13.9403 16.4679 14.1582 16.433 14.3675 16.4762L16.0125 16.8087C16.1929 16.8462 16.3806 16.8258 16.5487 16.7504C16.7168 16.675 16.8568 16.5484 16.9488 16.3887L18.6988 13.3612C18.7917 13.2014 18.8316 13.0162 18.8127 12.8323C18.7938 12.6484 18.7172 12.4752 18.5938 12.3375L17.4125 11.0775ZM16.1088 12.25L16.8088 13.0375L15.6888 14.98L14.6563 14.77C14.0261 14.6412 13.3705 14.7482 12.8141 15.0708C12.2576 15.3934 11.8389 15.9091 11.6375 16.52L11.305 17.5H9.06503L8.75003 16.5025C8.54865 15.8916 8.12999 15.3759 7.57351 15.0533C7.01703 14.7307 6.36147 14.6237 5.73128 14.7525L4.69878 14.9625L3.56128 13.0288L4.26128 12.2412C4.69174 11.76 4.92972 11.1369 4.92972 10.4912C4.92972 9.84556 4.69174 9.22252 4.26128 8.74125L3.56128 7.95375L4.68128 6.02875L5.71378 6.23875C6.34397 6.36757 6.99953 6.26052 7.55601 5.93792C8.11249 5.61533 8.53115 5.09964 8.73253 4.48875L9.06503 3.5H11.305L11.6375 4.4975C11.8389 5.10839 12.2576 5.62408 12.8141 5.94667C13.3705 6.26927 14.0261 6.37632 14.6563 6.2475L15.6888 6.0375L16.8088 7.98L16.1088 8.7675C15.6832 9.24766 15.4481 9.8671 15.4481 10.5087C15.4481 11.1504 15.6832 11.7698 16.1088 12.25ZM10.185 7C9.4928 7 8.81611 7.20527 8.24054 7.58986C7.66496 7.97444 7.21636 8.52107 6.95145 9.16061C6.68655 9.80015 6.61723 10.5039 6.75228 11.1828C6.88733 11.8617 7.22067 12.4854 7.71016 12.9749C8.19964 13.4644 8.82328 13.7977 9.50222 13.9327C10.1811 14.0678 10.8849 13.9985 11.5244 13.7336C12.164 13.4687 12.7106 13.0201 13.0952 12.4445C13.4798 11.8689 13.685 11.1922 13.685 10.5C13.685 9.57174 13.3163 8.6815 12.6599 8.02513C12.0035 7.36875 11.1133 7 10.185 7ZM10.185 12.25C9.83891 12.25 9.50057 12.1474 9.21278 11.9551C8.925 11.7628 8.7007 11.4895 8.56824 11.1697C8.43579 10.8499 8.40113 10.4981 8.46866 10.1586C8.53618 9.81913 8.70285 9.50731 8.94759 9.26256C9.19234 9.01782 9.50416 8.85115 9.84362 8.78363C10.1831 8.7161 10.535 8.75076 10.8547 8.88321C11.1745 9.01566 11.4478 9.23997 11.6401 9.52775C11.8324 9.81554 11.935 10.1539 11.935 10.5C11.935 10.9641 11.7507 11.4092 11.4225 11.7374C11.0943 12.0656 10.6492 12.25 10.185 12.25Z" fill="black"/>
</svg>
