<svg width="41" height="38" viewBox="0 0 41 38" fill="none" xmlns="http://www.w3.org/2000/svg">
<path fill-rule="evenodd" clip-rule="evenodd" d="M21.5 9.7C19.611 9.69965 17.755 10.1948 16.1172 11.1359C14.4793 12.077 13.117 13.4313 12.1661 15.0635C11.2153 16.6957 10.7091 18.5487 10.6982 20.4377C10.6873 22.3266 11.172 24.1854 12.104 25.8284C12.7339 25.0098 13.5437 24.3469 14.4707 23.8912C15.3977 23.4354 16.417 23.1989 17.45 23.2H25.55C26.583 23.1989 27.6023 23.4354 28.5293 23.8912C29.4563 24.3469 30.2661 25.0098 30.896 25.8284C31.828 24.1854 32.3127 22.3266 32.3018 20.4377C32.2909 18.5487 31.7847 16.6957 30.8339 15.0635C29.883 13.4313 28.5207 12.077 26.8828 11.1359C25.245 10.1948 23.389 9.69965 21.5 9.7ZM32.223 28.7026C34.028 26.3495 35.0043 23.4656 35 20.5C35 13.0439 28.956 7 21.5 7C14.044 7 8.00002 13.0439 8.00002 20.5C7.99556 23.4656 8.97189 26.3495 10.777 28.7026L10.7702 28.7269L11.2495 29.2844C12.5156 30.7647 14.0877 31.9529 15.8573 32.7669C17.627 33.581 19.5521 34.0017 21.5 34C24.2369 34.005 26.91 33.1737 29.1612 31.6172C30.121 30.9541 30.9913 30.1701 31.7505 29.2844L32.2298 28.7269L32.223 28.7026ZM21.5 12.4C20.4259 12.4 19.3957 12.8267 18.6362 13.5862C17.8767 14.3457 17.45 15.3759 17.45 16.45C17.45 17.5241 17.8767 18.5543 18.6362 19.3138C19.3957 20.0733 20.4259 20.5 21.5 20.5C22.5741 20.5 23.6043 20.0733 24.3638 19.3138C25.1233 18.5543 25.55 17.5241 25.55 16.45C25.55 15.3759 25.1233 14.3457 24.3638 13.5862C23.6043 12.8267 22.5741 12.4 21.5 12.4Z" fill="#D3D1D8"/>
</svg>
