<svg width="59" height="53" viewBox="0 0 59 53" fill="none" xmlns="http://www.w3.org/2000/svg">
<path d="M50.2405 8.61996C46.1246 4.50406 40.8807 1.70109 35.1718 0.565511C29.4629 -0.570067 23.5454 0.0127489 18.1677 2.24026C12.7901 4.46777 8.19368 8.23992 4.95985 13.0797C1.72602 17.9195 -1.80692e-05 23.6095 1.41871e-10 29.4303V40.2214H17.6581V36.2973H3.92403V29.4303C3.92403 15.3662 15.3661 3.92413 29.4302 3.92413C43.4943 3.92413 54.9364 15.3662 54.9364 29.4303V36.2973H41.2023V40.2214H58.8604V29.4303C58.8709 25.5639 58.1145 21.7338 56.6349 18.1617C55.1553 14.5896 52.9819 11.3465 50.2405 8.61996Z" fill="#FFC529"/>
<path d="M12.0778 26.3598H8.15381V30.2838H12.0778V26.3598Z" fill="#FFC529"/>
<path d="M31.698 9.68268H27.7739V13.6067H31.698V9.68268Z" fill="#FFC529"/>
<path d="M18.9449 14.5877H15.0209V18.5117H18.9449V14.5877Z" fill="#FFC529"/>
<path d="M51.3181 26.3598H47.394V30.2838H51.3181V26.3598Z" fill="#FFC529"/>
<path d="M32.906 31.2389L45.6783 16.3582L42.7006 13.8023L29.9315 28.679C28.2145 27.8316 26.2474 27.6395 24.3989 28.139C22.5504 28.6384 20.9476 29.7949 19.891 31.3917C18.8344 32.9885 18.3966 34.916 18.6596 36.8125C18.9227 38.7091 19.8685 40.4446 21.3198 41.6936C22.7711 42.9426 24.6282 43.6193 26.5428 43.5968C28.4574 43.5744 30.298 42.8542 31.7196 41.5715C33.1412 40.2887 34.046 38.5315 34.2644 36.6293C34.4828 34.727 33.9998 32.8104 32.906 31.2389ZM25.4558 39.513C24.7061 39.3121 24.0329 38.8934 23.5212 38.3099C23.0094 37.7264 22.6822 37.0043 22.5809 36.2348C22.4796 35.4654 22.6088 34.6832 22.952 33.9871C23.2953 33.291 23.8373 32.7124 24.5094 32.3243C25.1815 31.9363 25.9536 31.7563 26.728 31.807C27.5025 31.8578 28.2445 32.137 28.8602 32.6095C29.4759 33.082 29.9377 33.7264 30.1872 34.4613C30.4366 35.1962 30.4626 35.9886 30.2617 36.7383C29.9913 37.7429 29.3335 38.5992 28.4325 39.1194C27.5315 39.6395 26.461 39.7811 25.4558 39.513Z" fill="#FFC529"/>
<rect x="19.3654" y="28.0288" width="19.875" height="18.3461" fill="#F3FBE0"/>
<path d="M27.6211 20.563L17.9384 27.825C17.1316 28.4382 16.6474 29.3904 16.6474 30.407V44.9311C16.6474 46.7062 18.0998 48.1586 19.875 48.1586H39.2404C41.0155 48.1586 42.4679 46.7062 42.4679 44.9311V30.407C42.4679 29.3904 41.9838 28.4382 41.1769 27.825L31.4942 20.563C30.9345 20.1464 30.2554 19.9215 29.5577 19.9215C28.86 19.9215 28.1809 20.1464 27.6211 20.563ZM30.3646 34.4415C30.3646 35.7809 29.2833 36.8622 27.9439 36.8622V42.5104C27.9439 42.9623 27.5889 43.3173 27.137 43.3173C26.6851 43.3173 26.3301 42.9623 26.3301 42.5104V36.8622C24.9907 36.8622 23.9094 35.7809 23.9094 34.4415V30.407C23.9094 29.9552 24.2645 29.6002 24.7163 29.6002C25.1682 29.6002 25.5232 29.9552 25.5232 30.407V34.4415H26.3301V30.407C26.3301 29.9552 26.6851 29.6002 27.137 29.6002C27.5889 29.6002 27.9439 29.9552 27.9439 30.407V34.4415H28.7508V30.407C28.7508 29.9552 29.1058 29.6002 29.5577 29.6002C30.0095 29.6002 30.3646 29.9552 30.3646 30.407V34.4415ZM33.5921 43.3173C33.1403 43.3173 32.7852 42.9623 32.7852 42.5104V37.6691H31.9783C31.5265 37.6691 31.1715 37.314 31.1715 36.8622V32.8277C31.1715 31.4076 32.0913 30.1973 33.3662 29.7777C33.8665 29.6002 34.399 30.0036 34.399 30.5523V42.5104C34.399 42.9623 34.044 43.3173 33.5921 43.3173Z" fill="#FFC529"/>
</svg>
