<svg width="25" height="27" viewBox="0 0 25 27" fill="none" xmlns="http://www.w3.org/2000/svg">
<path d="M23.8322 11.2714C23.709 10.1911 23.2007 9.18874 22.3977 8.44274C21.5947 7.69673 20.5492 7.25545 19.4468 7.19724V6.87968C19.4479 5.97609 19.2674 5.08134 18.9162 4.24659C18.5649 3.41184 18.0496 2.65362 17.3998 2.01565C16.7514 1.37574 15.981 0.868317 15.1329 0.522408C14.2848 0.176499 13.3758 -0.00105153 12.4578 4.6848e-06C10.6048 0.000672481 8.82801 0.725815 7.51774 2.01611C6.20747 3.30641 5.47111 5.05631 5.47043 6.88106V7.20216C4.38273 7.27828 3.35628 7.72734 2.56984 8.47119C1.78339 9.21503 1.28668 10.2067 1.16561 11.2739L0 21.7303C0.00575769 23.1323 0.576254 24.4747 1.58632 25.4628C2.59638 26.4508 3.96365 27.0037 5.38735 27H19.613C21.0367 27.0037 22.4036 26.4508 23.4137 25.4628C24.4237 24.4747 24.9942 23.1323 25 21.7303L23.8322 11.2714ZM7.52243 6.89229C7.52226 6.25408 7.64964 5.6221 7.89753 5.03243C8.14542 4.44275 8.50905 3.90702 8.96726 3.45568C9.42546 3.00434 9.9692 2.64622 10.5679 2.40195C11.1667 2.15769 11.8085 2.0321 12.4566 2.0321C13.1048 2.03149 13.7467 2.15689 14.3455 2.40118C14.9444 2.64548 15.4886 3.0037 15.9465 3.45553C16.4056 3.90637 16.7695 4.44205 17.0178 5.03181C17.2661 5.62157 17.3937 6.25385 17.3932 6.89229V7.18709H7.52243V6.89229ZM8.49595 14.0405C8.33311 14.0406 8.17169 14.0092 8.02121 13.9479C7.87074 13.8866 7.73408 13.7966 7.61893 13.6832C7.50379 13.5698 7.41257 13.4353 7.35033 13.2871C7.28809 13.1389 7.25615 12.9801 7.25632 12.8197C7.25615 12.6594 7.28809 12.5006 7.35033 12.3524C7.41257 12.2042 7.50379 12.0695 7.61893 11.9561C7.73408 11.8427 7.87074 11.7529 8.02121 11.6916C8.17169 11.6303 8.33311 11.5988 8.49595 11.599C8.65902 11.5987 8.82055 11.6299 8.97132 11.6911C9.12208 11.7523 9.25905 11.8421 9.37453 11.9555C9.49002 12.0688 9.58179 12.2035 9.64438 12.3518C9.70698 12.5 9.73916 12.6591 9.73933 12.8197C9.73916 12.9803 9.70698 13.1393 9.64438 13.2875C9.58179 13.4358 9.49002 13.5705 9.37453 13.6838C9.25905 13.7972 9.12208 13.887 8.97132 13.9482C8.82055 14.0094 8.65902 14.0408 8.49595 14.0405ZM16.5069 14.0405C16.3438 14.0408 16.1823 14.0094 16.0315 13.9482C15.8807 13.887 15.7438 13.7972 15.6283 13.6838C15.5128 13.5705 15.421 13.4358 15.3584 13.2875C15.2958 13.1393 15.2636 12.9803 15.2635 12.8197C15.2636 12.6591 15.2958 12.5 15.3584 12.3518C15.421 12.2035 15.5128 12.0688 15.6283 11.9555C15.7438 11.8421 15.8807 11.7523 16.0315 11.6911C16.1823 11.6299 16.3438 11.5987 16.5069 11.599C16.6697 11.5988 16.8308 11.6303 16.9813 11.6916C17.1318 11.7529 17.2687 11.8427 17.3839 11.9561C17.499 12.0695 17.5902 12.2042 17.6525 12.3524C17.7147 12.5006 17.7467 12.6594 17.7465 12.8197C17.7467 12.9801 17.7147 13.1389 17.6525 13.2871C17.5902 13.4353 17.499 13.5698 17.3839 13.6832C17.2687 13.7966 17.1318 13.8866 16.9813 13.9479C16.8308 14.0092 16.6697 14.0406 16.5069 14.0405Z" fill="#D3D1D8"/>
</svg>
